<?xml version="1.0" encoding="UTF-8"?>
<svg id="Layer_1" data-name="Layer 1" xmlns="http://www.w3.org/2000/svg" viewBox="0 0 1028.93 385.89">
  <defs>
    <style>
      .cls-1, .cls-2 {
        fill: #fff;
      }

      .cls-3 {
        fill: #1e1e1e;
      }

      .cls-4 {
        stroke-width: 6.29px;
      }

      .cls-4, .cls-5, .cls-2, .cls-6, .cls-7 {
        stroke: #1e1e1e;
        stroke-miterlimit: 10;
      }

      .cls-4, .cls-6 {
        fill: none;
      }

      .cls-5 {
        stroke-width: 4.14px;
      }

      .cls-5, .cls-8 {
        fill: #fffdee;
      }

      .cls-2 {
        stroke-width: 5.39px;
      }

      .cls-6 {
        stroke-width: 4.19px;
      }

      .cls-7 {
        stroke-width: 4.19px;
      }

      .cls-7, .cls-9 {
        fill: #ed3363;
      }
    </style>
  </defs>
  <g>
    <path class="cls-2" d="M383.19,192.95c0,46.94-17,89.91-45.18,123.09-.13.16-.26.31-.4.46-4.26,4.99-8.77,9.75-13.52,14.27-.49.47-.98.93-1.47,1.38-2.12,1.99-4.29,3.92-6.51,5.8-7.17,6.1-14.79,11.68-22.82,16.66-3.36,2.1-6.79,4.08-10.29,5.96-1.01.55-2.03,1.09-3.06,1.61-23.4,12.06-49.62,19.41-77.41,20.78-3.18.16-6.38.24-9.6.24-16.66,0-32.8-2.14-48.19-6.16-1.35-.35-2.69-.72-4.03-1.1-1.51-.43-3.02-.88-4.52-1.35-2.02-.63-4.02-1.3-6.02-1.99-3.94-1.38-7.83-2.89-11.65-4.51-10.59-4.51-20.69-9.94-30.2-16.22-7.01-4.62-13.71-9.7-20.03-15.18-1.16-1.01-2.32-2.04-3.45-3.09C26.67,298.83,2.69,248.69,2.69,192.95,2.69,87.87,87.87,2.69,192.95,2.69s190.25,85.18,190.25,190.25Z"/>
    <g>
      <path class="cls-7" d="M228.47,339.77l64.83,14.83c-3.36,2.1-6.79,4.08-10.29,5.96-1.01.55-2.03,1.09-3.06,1.61-23.4,12.06-49.62,19.41-77.41,20.78-16.95-.35-33.42-2.69-49.18-6.81-1.5-.39-2.99-.8-4.48-1.23-1.69-.48-3.37-.98-5.03-1.5-2.25-.7-4.48-1.44-6.7-2.21-4.39-1.53-8.72-3.21-12.98-5.02-11.79-5.01-23.04-11.07-33.62-18.05-7.81-5.15-15.26-10.81-22.3-16.91,6.47-8.26,12.08-16.43,14.98-22.31.38-.75.71-1.47.99-2.15l89.44,20.45,54.8,12.54Z"/>
      <path class="cls-7" d="M337.62,316.49c-4.26,4.99-8.77,9.75-13.52,14.27-.49.47-.98.93-1.47,1.38-2.12,1.99-4.29,3.92-6.51,5.8-7.17,6.1-14.79,11.68-22.82,16.66-3.36,2.1-6.79,4.08-10.29,5.96-1.01.55-2.03,1.09-3.06,1.61-23.4,12.06-49.62,19.41-77.41,20.78-16.95-.35-33.42-2.69-49.18-6.81-1.5-.39-2.99-.8-4.48-1.23-1.69-.48-3.37-.98-5.03-1.5-2.25-.7-4.48-1.44-6.7-2.21-4.39-1.53-8.72-3.21-12.98-5.02-11.79-5.01-23.04-11.07-33.62-18.05-7.81-5.15-15.26-10.81-22.3-16.91-1.3-1.12-2.59-2.27-3.85-3.43,4.47-11.08,7.55-22.24,9.96-28.06-11.75-34.83-9.73-29.09-11.75-41.95-2.02-12.86-4.85-50.37-4.85-79.62,0-18.76,12.65-72.08,15.69-80.66,3.04-8.58,23.55-57.21,76.4-71.85,52.85-14.64,106.87,7.73,131.1,29.44,14.99,13.42,46.78,56.51,57.32,102.81,0,.01,0,.02,0,.03,0,.02.01.04.02.06,1.73,7.69,2.9,15.48,3.29,23.23,0,.05,0,.11,0,.17.96,19.29-2.81,38.36-14.03,55.35-.01.02-.03.05-.05.07h0s0,.02-.02.02c-.93,1.42-1.92,2.83-2.97,4.22-3.52,4.69-6.51,9.05-8.98,13.11h0s0,0,0,.01c0,.01-.01.02-.02.03-13.89,22.8-11.95,36.1-2.52,46.04,5.94,6.24,14.83,11.14,24.62,16.22Z"/>
      <path class="cls-8" d="M148.89,374.92c-.87.48-1.72.97-2.55,1.47-.63-1.15-1.48-2.16-2.49-2.97,1.67.52,3.35,1.02,5.03,1.5Z"/>
      <path class="cls-3" d="M278.75,214c-2.45,28.9-8.44,35.83-18.73,48.07-10.29,12.25-10.78,11.27-36.25,26.94-25.47,15.68-36.27,26.94-49.49,37.72l-.62.5c-13.33,10.59-36.76,20.32-47.37,35.75-.73,1.06-1.43,2.13-2.11,3.21-11.79-5.02-23.04-11.07-33.62-18.05-5.42-10.62-5.42-12.87-5.42-24.12,0-2.36-.72-7.75-1.9-15.1-2.89-18-8.54-47.77-13.2-73.74-5.41-30.18-4.71-61.13,2.07-91.04l6.22-27.44c4.86-12.31,16.61-32.19,38.66-53.38,22.04-21.19,66.13-32.45,101.4-22.17,35.27,10.29,38.7,36.74,38.7,53.4s4.4,44.08,18.13,54.37c13.71,10.29,5.98,36.19,3.54,65.09Z"/>
      <path class="cls-1" d="M237.15,95.51c-.47-17.91-23.03-33.13-51.13-32.19-45.86,1.54-83.08,37.2-83.08,83.08l-8.82,8.82s-2.24,2.78-2.24,6.46v49.79s2.13,6.93,7.11,6.93,31.39,4.55,31.39,19.48v52.17s1.52,3.03,5.84,3.03h70.14l31.39-25.54v-48.51h32.97s6.7-.88,8.03-5.02v-20.37l-22.2-8.97-2.23-35.01-16.97-16.77-.2-37.38Z"/>
      <path class="cls-3" d="M74.37,151.16h59.81l13.63,4.54h23.22l14.29-4.54h60.16l8.08,2.27,17.79,9.99-2.21,26.32-16.08-8.3s-4.54,23.98-40.88,28.27c0,0-37.35-6.81-40.88-34.07,0,0-9.09-12.87-19.94,0,0,0-1.51,28.01-35.84,34.07,0,0-34.83-1.51-37.35-40.13l-3.79-2.78v-15.65Z"/>
      <path class="cls-9" d="M89.93,157.06h43.85c6.61,0,11.64,5.83,10.77,12.38-1.73,13.04-7.95,31.85-29.41,33.04,0,0-29.15,1.32-29.99-40.57-.05-2.66,2.12-4.85,4.78-4.85Z"/>
      <path class="cls-9" d="M233.5,157.83h-43.85c-6.61,0-11.64,5.83-10.77,12.38,1.73,13.04,7.95,31.85,29.41,33.04,0,0,29.15,1.32,29.99-40.57.05-2.66-2.12-4.85-4.78-4.85Z"/>
      <path class="cls-4" d="M133.02,219.75s12.61-49.22,28.19-49.82,24.1,39.78,24.1,39.78"/>
      <path class="cls-3" d="M160.22,217.46s-2.22,4.13-6.8,2.29c-4.58-1.83-2.29-6.64,0-16.5,2.29-9.86,5.04-22.01,8.48-21.78s9.85,23.6,10.54,30.48c.69,6.88-2.75,8.27-4.13,8.26s-8.09-2.76-8.09-2.76Z"/>
      <rect class="cls-3" x="130.38" y="257.79" width="78.14" height="6.96"/>
      <rect class="cls-3" x="138.51" y="241.08" width="6.14" height="35.28"/>
      <rect class="cls-3" x="157.15" y="241.08" width="6.14" height="35.28"/>
      <rect class="cls-3" x="176.56" y="241.08" width="6.14" height="35.28"/>
      <rect class="cls-3" x="194.43" y="241.08" width="6.14" height="35.28"/>
      <path class="cls-3" d="M208.53,257.79v-21.12s8.05-16.92,18.64-16.92h10.59l.53,23.19s-12.74-14.16-24.11,2.09v13.69s-2.23,4.64-5.64,6.03c-3.41,1.39,0-6.96,0-6.96Z"/>
      <path class="cls-6" d="M338.25,157.83s17.95,54.21-28.98,103.45c-57.41,60.23-74.18,56.09-74.18,56.09"/>
      <path class="cls-3" d="M337.62,316.49c-4.26,4.99-8.77,9.75-13.52,14.27-.49.47-.98.93-1.47,1.38-2.22,1.67-4.42,3.59-6.51,5.8-7.17,6.1-14.79,11.68-22.82,16.66-3.36,2.1-6.79,4.08-10.29,5.96-1.01.55-2.03,1.09-3.06,1.61-23.4,12.06-49.62,19.41-77.41,20.78-16.95-.35-33.42-2.69-49.18-6.81-1.5-.39-2.99-.8-4.48-1.23.79-.43,1.6-.86,2.43-1.27,8.95-4.48,20.11-7.75,34-8.97,0,0,20.9-9.83,35.5-19.65,2.02-1.36,4.61-3.16,7.65-5.26,18.91-13.1,55.25-37.98,80.85-41.83l3.68,2.33,25.01,15.76"/>
      <path class="cls-5" d="M137.61,371.21c2.34,0,4.53.81,6.25,2.21-2.25-.7-4.48-1.44-6.7-2.21h.45Z"/>
    </g>
  </g>
  <g>
    <g>
      <path class="cls-1" d="M490.66,70.33h63.21c39.68,0,63.61,25.52,63.61,71.38s-21.93,71.18-61.61,71.18h-65.2V70.33ZM526.55,183.59h23.73c22.33,0,31.31-15.95,31.31-41.87s-8.97-42.07-31.31-42.07h-23.73v83.95Z"/>
      <path class="cls-1" d="M729.33,124.97v29.31h-62.21v29.31h73.38v29.31h-109.27V70.33h108.07v29.31h-72.18v25.32h62.21Z"/>
      <path class="cls-1" d="M792.54,183.19l-9.17,29.71h-35.89l51.64-142.57h35.89l51.44,142.57h-35.89l-9.17-29.71h-48.85ZM833.42,155.87l-16.15-52.64h-.4l-16.15,52.64h32.7Z"/>
      <path class="cls-1" d="M896.43,70.33h63.21c39.68,0,63.61,25.52,63.61,71.38s-21.93,71.18-61.61,71.18h-65.2V70.33ZM932.32,183.59h23.73c22.33,0,31.31-15.95,31.31-41.87s-8.97-42.07-31.31-42.07h-23.73v83.95Z"/>
    </g>
    <g>
      <path class="cls-1" d="M533.91,275.38v12.92h-27.43v12.92h32.35v12.92h-48.18v-62.86h47.65v12.92h-31.83v11.17h27.43Z"/>
      <path class="cls-1" d="M545.87,251.3h15.83l21.98,37.37h.18v-37.37h15.83v62.86h-15.83l-21.98-37.36h-.18v37.36h-15.83v-62.86Z"/>
      <path class="cls-1" d="M622.44,264.22h-18.29v-12.92h52.31v12.92h-18.2v49.94h-15.83v-49.94Z"/>
      <path class="cls-1" d="M705.52,275.38v12.92h-27.43v12.92h32.35v12.92h-48.18v-62.86h47.65v12.92h-31.83v11.17h27.43Z"/>
      <path class="cls-1" d="M717.48,251.3h29.63c13.98,0,22.42,6.42,22.42,18.29,0,8.35-4.92,13.63-12.75,15.38v.18c15.74,2.73,10.02,27.08,13.63,28.13v.88h-16.44c-3.08-2.64,2.64-21.89-10.81-21.89h-9.85v21.89h-15.83v-62.86ZM733.3,279.34h10.73c6.33,0,9.67-2.28,9.67-7.56s-3.34-7.56-9.67-7.56h-10.73v15.12Z"/>
      <path class="cls-1" d="M776.47,251.3h30.51c13.1,0,21.28,6.86,21.28,20.05s-8.18,20.05-21.28,20.05h-14.68v22.77h-15.83v-62.86ZM792.29,278.46h11.34c5.45,0,8.79-1.85,8.79-7.12s-3.34-7.12-8.79-7.12h-11.34v14.24Z"/>
      <path class="cls-1" d="M833.79,251.3h29.63c13.98,0,22.42,6.42,22.42,18.29,0,8.35-4.92,13.63-12.75,15.38v.18c15.74,2.73,10.02,27.08,13.63,28.13v.88h-16.44c-3.08-2.64,2.64-21.89-10.81-21.89h-9.85v21.89h-15.83v-62.86ZM849.61,279.34h10.73c6.33,0,9.67-2.28,9.67-7.56s-3.34-7.56-9.67-7.56h-10.73v15.12Z"/>
      <path class="cls-1" d="M908.69,251.3v62.86h-15.83v-62.86h15.83Z"/>
      <path class="cls-1" d="M968.74,295.69c0,12.05-9.14,19.87-24.88,19.87s-28.66-8.09-28.66-22.07h15.82c0,6.68,5.8,9.14,12.84,9.14,5.89,0,9.06-2.29,9.06-5.45,0-5.01-6.77-6.15-15.65-8.79-10.81-3.16-20.31-7.82-20.31-19.43,0-13.72,10.73-19.08,24.27-19.08,14.68,0,26.2,7.74,26.64,20.48h-15.83c-.7-4.75-4.75-7.56-10.81-7.56-4.75,0-8.44,1.49-8.44,5.01,0,3.87,3.96,5.1,11.87,7.3,11.87,3.25,24.09,7.12,24.09,20.57Z"/>
      <path class="cls-1" d="M1018.32,275.38v12.92h-27.43v12.92h32.35v12.92h-48.18v-62.86h47.65v12.92h-31.83v11.17h27.43Z"/>
    </g>
  </g>
</svg>