<?xml version="1.0" encoding="UTF-8"?>
<svg id="Layer_2" data-name="Layer 2" xmlns="http://www.w3.org/2000/svg" viewBox="0 0 112.68 51.88">
  <defs>
    <style>
      .cls-1 {
        fill: #1e1e1e;
      }
    </style>
  </defs>
  <g id="Layer_1-2" data-name="Layer 1">
    <g>
      <g>
        <path class="cls-1" d="M0,0h13.37c8.39,0,13.46,5.4,13.46,15.1s-4.64,15.06-13.04,15.06H0V0ZM7.59,23.96h5.02c4.72,0,6.62-3.37,6.62-8.86s-1.9-8.9-6.62-8.9h-5.02v17.76Z"/>
        <path class="cls-1" d="M50.5,11.56v6.2h-13.16v6.2h15.52v6.2h-23.12V0h22.86v6.2h-15.27v5.36h13.16Z"/>
        <path class="cls-1" d="M63.87,23.88l-1.94,6.29h-7.59L65.26,0h7.59l10.88,30.16h-7.59l-1.94-6.29h-10.34ZM72.52,18.1l-3.42-11.14h-.08l-3.42,11.14h6.92Z"/>
        <path class="cls-1" d="M85.85,0h13.37c8.39,0,13.46,5.4,13.46,15.1s-4.64,15.06-13.04,15.06h-13.79V0ZM93.44,23.96h5.02c4.72,0,6.62-3.37,6.62-8.86s-1.9-8.9-6.62-8.9h-5.02v17.76Z"/>
      </g>
      <g>
        <path class="cls-1" d="M9.15,43.38v2.73H3.35v2.73h6.84v2.73H0v-13.3h10.08v2.73H3.35v2.36h5.8Z"/>
        <path class="cls-1" d="M11.68,38.29h3.35l4.65,7.91h.04v-7.91h3.35v13.3h-3.35l-4.65-7.9h-.04v7.9h-3.35v-13.3Z"/>
        <path class="cls-1" d="M27.88,41.02h-3.87v-2.73h11.07v2.73h-3.85v10.56h-3.35v-10.56Z"/>
        <path class="cls-1" d="M45.46,43.38v2.73h-5.8v2.73h6.84v2.73h-10.19v-13.3h10.08v2.73h-6.73v2.36h5.8Z"/>
        <path class="cls-1" d="M47.99,38.29h6.27c2.96,0,4.74,1.36,4.74,3.87,0,1.77-1.04,2.88-2.7,3.25v.04c3.33.58,2.12,5.73,2.88,5.95v.19h-3.48c-.65-.56.56-4.63-2.29-4.63h-2.08v4.63h-3.35v-13.3ZM51.34,44.22h2.27c1.34,0,2.05-.48,2.05-1.6s-.71-1.6-2.05-1.6h-2.27v3.2Z"/>
        <path class="cls-1" d="M60.47,38.29h6.45c2.77,0,4.5,1.45,4.5,4.24s-1.73,4.24-4.5,4.24h-3.11v4.82h-3.35v-13.3ZM63.82,44.03h2.4c1.15,0,1.86-.39,1.86-1.51s-.71-1.51-1.86-1.51h-2.4v3.01Z"/>
        <path class="cls-1" d="M72.59,38.29h6.27c2.96,0,4.74,1.36,4.74,3.87,0,1.77-1.04,2.88-2.7,3.25v.04c3.33.58,2.12,5.73,2.88,5.95v.19h-3.48c-.65-.56.56-4.63-2.29-4.63h-2.08v4.63h-3.35v-13.3ZM75.94,44.22h2.27c1.34,0,2.05-.48,2.05-1.6s-.71-1.6-2.05-1.6h-2.27v3.2Z"/>
        <path class="cls-1" d="M88.44,38.29v13.3h-3.35v-13.3h3.35Z"/>
        <path class="cls-1" d="M101.15,47.68c0,2.55-1.93,4.2-5.26,4.2s-6.06-1.71-6.06-4.67h3.35c0,1.41,1.23,1.93,2.72,1.93,1.25,0,1.92-.48,1.92-1.15,0-1.06-1.43-1.3-3.31-1.86-2.29-.67-4.3-1.66-4.3-4.11,0-2.9,2.27-4.04,5.13-4.04,3.11,0,5.54,1.64,5.64,4.33h-3.35c-.15-1-1-1.6-2.29-1.6-1,0-1.79.32-1.79,1.06,0,.82.84,1.08,2.51,1.54,2.51.69,5.1,1.51,5.1,4.35Z"/>
        <path class="cls-1" d="M111.64,43.38v2.73h-5.8v2.73h6.84v2.73h-10.19v-13.3h10.08v2.73h-6.73v2.36h5.8Z"/>
      </g>
    </g>
  </g>
</svg>