<?xml version="1.0" encoding="UTF-8"?>
<svg id="Layer_2" data-name="Layer 2" xmlns="http://www.w3.org/2000/svg" viewBox="0 0 164.13 115.38">
  <defs>
    <style>
      .cls-1 {
        fill: #f8dee3;
      }
    </style>
  </defs>
  <g id="Layer_1-2" data-name="Layer 1">
    <path class="cls-1" d="M164.06,13.64c-.74-7.66-6.24-13.07-13.92-13.64L13.63.02C6.34.63,1.23,5.75,0,12.83v89.72c.77,6.84,6.8,12.37,13.63,12.82l136.51.02c6.63-.5,11.9-4.68,13.51-11.16.95-30.12.16-60.4.41-90.58ZM147.4,9.62l-56.07,55.92c-5.57,4.51-13.02,4.51-18.58,0L16.67,9.62h130.73ZM9.61,98.7V16.67l41.31,40.91L9.61,98.7ZM16.67,105.75l41.22-40.99c6.99,6.43,12.27,13.27,22.69,13.77,11.7.57,17.89-6.06,25.38-13.77l41.45,40.99H16.67ZM154.45,98.7l-41.31-40.9,41.31-41.14v82.03Z"/>
  </g>
</svg>