<?xml version="1.0" encoding="UTF-8"?>
<svg id="Layer_2" data-name="Layer 2" xmlns="http://www.w3.org/2000/svg" viewBox="0 0 116.84 116.84">
  <defs>
    <style>
      .cls-1 {
        fill: #f8dee3;
      }
    </style>
  </defs>
  <g id="Layer_1-2" data-name="Layer 1">
    <g>
      <path class="cls-1" d="M89.92,0l5.8,1.16c9.41,2.69,17.04,10.26,19.87,19.61l1.26,6.16v62.98c-1.41,14.58-13.02,26.05-27.72,26.94H27.51C12.77,115.87,1.01,104.04.01,89.33V27.72C.71,13.35,12.58,1.11,26.94,0h62.98ZM26.89,9.88c-8.92,1.04-16.02,8.28-17.04,17.19l-.03,62.49c.97,9.22,8.4,16.64,17.67,17.47h62.07c9.25-.95,16.62-8.44,17.47-17.68V27.27c-.98-9.14-8.27-16.52-17.47-17.46l-62.68.07Z"/>
      <path class="cls-1" d="M79.11,37.73c15.44,15.44,8.8,42.34-12.07,48.58-23.3,6.97-44.36-15.36-35.94-38.22,7.25-19.71,33.12-25.25,48.01-10.36ZM56.1,39.09c-13.46,1.32-21.17,16.57-14.9,28.46,7.97,15.12,30.82,13.11,35.78-3.25,4.17-13.77-6.66-26.6-20.87-25.21Z"/>
      <path class="cls-1" d="M89.86,19.46c9.24-.29,9.94,13.6,1.31,14.54-10.45,1.15-11.17-14.23-1.31-14.54Z"/>
    </g>
  </g>
</svg>