<?xml version="1.0" encoding="UTF-8"?>
<svg id="Layer_2" data-name="Layer 2" xmlns="http://www.w3.org/2000/svg" viewBox="0 0 136.32 136.31">
  <defs>
    <style>
      .cls-1 {
        fill: #f8dee3;
      }
    </style>
  </defs>
  <g id="Layer_1-2" data-name="Layer 1">
    <g>
      <path class="cls-1" d="M136.3,136.31h-28.2v-49.66c-.58-10.58-3.53-19.34-15.84-18.77-12.17.56-15.28,9.7-15.83,20.37v48.06s-28.19,0-28.19,0V45.26h27.14v12.51c1.45-1.58,2.51-3.58,3.98-5.2,8.18-8.96,20.66-10.85,32.21-8.78,19.76,3.53,23.97,19.75,24.75,37.53v54.99Z"/>
      <polygon class="cls-1" points="30.68 136.31 2.21 136.31 2.61 45.26 30.28 45.26 30.68 136.31"/>
      <path class="cls-1" d="M.08,18.38c-.11-.99-.11-3,0-3.99C.74,8.31,5.78,2.46,11.59.74c15.2-4.5,27.28,12.55,17.98,25.45C20.87,38.24,1.65,32.83.08,18.38Z"/>
    </g>
  </g>
</svg>