<?xml version="1.0" encoding="UTF-8"?>
<svg id="Layer_2" data-name="Layer 2" xmlns="http://www.w3.org/2000/svg" viewBox="0 0 119.7 136.3">
  <defs>
    <style>
      .cls-1 {
        fill: #f8dee3;
      }
    </style>
  </defs>
  <g id="Layer_1-2" data-name="Layer 1">
    <path class="cls-1" d="M41.43,136.3c-27.43-1.08-47.41-26.82-39.8-53.78,5.74-20.36,26.6-33.43,47.52-30.08v22.36c-4.83-1.04-9.02-1.25-13.72.53-24.83,9.39-10.17,47.55,14.96,37.32,14.24-5.79,12.43-19.6,12.61-32.38.38-26.75-.31-53.53-.01-80.28h22.1c-.04,17.35,13.73,32.46,31.02,34.07,1.17.11,2.71-.36,3.59.4v21.7c-8.84.31-17.56-2.02-25.47-5.81l-9.14-5.64c.06,13.27-.08,26.54-.01,39.81.02,4.61.49,9.17,0,13.83-2.18,21.01-20.07,37.1-40.99,37.94h-2.66Z"/>
  </g>
</svg>